<?xml version="1.0" encoding="UTF-8" standalone="no"?><!DOCTYPE svg PUBLIC "-//W3C//DTD SVG 1.1//EN" "http://www.w3.org/Graphics/SVG/1.1/DTD/svg11.dtd"><svg width="100%" height="100%" viewBox="0 0 40 40" version="1.1" xmlns="http://www.w3.org/2000/svg" xmlns:xlink="http://www.w3.org/1999/xlink" xml:space="preserve" xmlns:serif="http://www.serif.com/" style="fill-rule:evenodd;clip-rule:evenodd;stroke-linejoin:round;stroke-miterlimit:2;"><path id="Shape" d="M35.887,29.649c0,1.571 -1.288,2.828 -2.828,2.828l-26.118,0c-1.571,0 -2.828,-1.288 -2.828,-2.828l0,-19.298c0,-1.571 1.288,-2.828 2.828,-2.828l26.118,0c1.571,0 2.828,1.288 2.828,2.828l0,19.298Zm-2.828,-19.863l-26.118,0c-0.314,0 -0.565,0.251 -0.565,0.565c0,2.012 1.005,3.772 2.608,5.029c2.389,1.886 4.746,3.74 7.135,5.626c0.942,0.754 2.64,2.388 3.897,2.388c1.257,0 2.954,-1.634 3.897,-2.388c2.357,-1.886 4.746,-3.772 7.134,-5.626c1.163,-0.911 2.609,-2.86 2.609,-4.369c-0.032,-0.44 0.094,-1.225 -0.597,-1.225Zm0.565,6.223c-0.377,0.44 -0.785,0.817 -1.225,1.162c-2.546,1.949 -5.092,3.929 -7.543,6.003c-1.352,1.132 -2.986,2.483 -4.84,2.483c-1.855,0 -3.489,-1.351 -4.84,-2.483c-2.452,-2.043 -5.029,-4.054 -7.543,-6.003c-0.472,-0.345 -0.88,-0.722 -1.257,-1.162l0,13.64c0,0.314 0.251,0.565 0.565,0.565l26.118,0c0.314,0 0.565,-0.251 0.565,-0.565l0,-13.64Z"/><rect x="0" y="0" width="40" height="40" style="fill:none;"/></svg>