<?xml version="1.0" encoding="UTF-8" standalone="no"?><!DOCTYPE svg PUBLIC "-//W3C//DTD SVG 1.1//EN" "http://www.w3.org/Graphics/SVG/1.1/DTD/svg11.dtd"><svg width="100%" height="100%" viewBox="0 0 40 40" version="1.1" xmlns="http://www.w3.org/2000/svg" xmlns:xlink="http://www.w3.org/1999/xlink" xml:space="preserve" xmlns:serif="http://www.serif.com/" style="fill-rule:evenodd;clip-rule:evenodd;stroke-linejoin:round;stroke-miterlimit:2;"><path id="Shape" d="M33.609,28.517c0,2.829 -2.295,5.123 -5.123,5.123l-17.003,0c-2.829,-0.031 -5.123,-2.294 -5.123,-5.123l0,-17.034c0,-2.829 2.294,-5.123 5.123,-5.123l17.034,0c2.829,0 5.123,2.294 5.123,5.123l0,17.034l-0.031,0Zm-20.963,-17.568c-1.383,0 -2.326,0.911 -2.326,2.137c0,1.163 0.88,2.137 2.263,2.137c1.446,0 2.326,-0.974 2.326,-2.137c0,-1.226 -0.849,-2.137 -2.263,-2.137Zm2.011,18.228l0,-12.288l-4.086,0l0,12.32l4.086,0l0,-0.032Zm14.74,0l0,-7.071c0,-3.803 -2.011,-5.532 -4.714,-5.532c-2.2,0 -3.174,1.226 -3.709,2.075l0.032,0l0,-1.76l-4.086,0c0,0 0.031,1.162 0,12.32l4.086,0l0,-6.883c0,-0.346 0,-0.723 0.125,-0.975c0.315,-0.722 0.975,-1.508 2.106,-1.508c1.477,0 2.043,1.131 2.043,2.797l0,6.569l4.117,0l0,-0.032Z"/><rect x="0" y="0" width="40" height="40" style="fill:none;"/></svg>