<?xml version="1.0" encoding="UTF-8" standalone="no"?><!DOCTYPE svg PUBLIC "-//W3C//DTD SVG 1.1//EN" "http://www.w3.org/Graphics/SVG/1.1/DTD/svg11.dtd"><svg width="100%" height="100%" viewBox="0 0 35 35" version="1.1" xmlns="http://www.w3.org/2000/svg" xmlns:xlink="http://www.w3.org/1999/xlink" xml:space="preserve" xmlns:serif="http://www.serif.com/" style="fill-rule:evenodd;clip-rule:evenodd;stroke-linejoin:round;stroke-miterlimit:2;"><path id="Shape" d="M25.263,31.124l-15.495,0c-2.828,0 -4.745,-1.728 -4.745,-4.588c0,-4.023 0.943,-10.183 6.128,-10.183c0.566,0 2.86,2.483 6.349,2.483c3.488,0 5.814,-2.483 6.348,-2.483c5.218,0 6.129,6.16 6.129,10.183c0.031,2.891 -1.886,4.588 -4.714,4.588Zm-7.732,-13.608c-3.771,0 -6.82,-3.049 -6.82,-6.82c0,-3.772 3.049,-6.82 6.82,-6.82c3.772,0 6.82,3.048 6.82,6.82c0,3.771 -3.08,6.82 -6.82,6.82Z"/><rect x="0" y="0" width="35" height="35" style="fill:none;"/></svg>